<svg width="24" height="30" viewBox="0 0 24 30" fill="none" xmlns="http://www.w3.org/2000/svg">
<path d="M16.7273 21.1035C20.0098 19.3802 22.2747 15.9337 22.2747 11.9619C22.2747 6.26691 17.6464 1.63867 11.9514 1.63867C6.25636 1.63867 1.64453 6.26691 1.64453 11.9619C1.64453 15.9337 3.90941 19.3967 7.19185 21.1035" stroke="#E1C441" stroke-width="2.6637"/>
<path d="M15.3313 24.7285V25.0896C15.2329 26.8785 13.7558 28.2735 11.9504 28.2735C10.1451 28.2735 8.668 26.8785 8.58594 25.0896V24.7285" stroke="#E1C441" stroke-width="2.6637"/>
<path d="M16.2642 20.3633H7.63142C7.37762 20.3633 7.17188 20.569 7.17188 20.8228V24.2694C7.17188 24.5232 7.37762 24.7289 7.63142 24.7289H16.2642C16.518 24.7289 16.7238 24.5232 16.7238 24.2694V20.8228C16.7238 20.569 16.518 20.3633 16.2642 20.3633Z" stroke="#E1C441" stroke-width="2.6637"/>
</svg>
