<svg width="52" height="51" viewBox="0 0 52 51" fill="none" xmlns="http://www.w3.org/2000/svg">
<ellipse cx="25.6667" cy="25.0556" rx="25.6667" ry="25.0556" fill="#E6FFFF"/>
<path d="M36.75 21.75C36.7491 20.9546 36.4328 20.1921 35.8704 19.6296C35.3079 19.0672 34.5454 18.7509 33.75 18.75H31.5V18C31.4994 17.4035 31.2621 16.8315 30.8403 16.4097C30.4185 15.9879 29.8465 15.7506 29.25 15.75H21.75C21.1535 15.7506 20.5815 15.9879 20.1597 16.4097C19.7379 16.8315 19.5006 17.4035 19.5 18V18.75H17.25C16.4546 18.7509 15.6921 19.0672 15.1296 19.6296C14.5672 20.1921 14.2509 20.9546 14.25 21.75V24H36.75V21.75ZM30 18.75H21V18C21 17.8011 21.079 17.6103 21.2197 17.4697C21.3603 17.329 21.5511 17.25 21.75 17.25H29.25C29.4489 17.25 29.6397 17.329 29.7803 17.4697C29.921 17.6103 30 17.8011 30 18V18.75ZM29.25 25.875C29.25 26.1734 29.1315 26.4595 28.9205 26.6705C28.7095 26.8815 28.4234 27 28.125 27H22.875C22.5766 27 22.2905 26.8815 22.0795 26.6705C21.8685 26.4595 21.75 26.1734 21.75 25.875V25.6875C21.75 25.6378 21.7302 25.5901 21.6951 25.5549C21.6599 25.5198 21.6122 25.5 21.5625 25.5H14.25V32.25C14.25 33.0456 14.5661 33.8087 15.1287 34.3713C15.6913 34.9339 16.4544 35.25 17.25 35.25H33.75C34.5456 35.25 35.3087 34.9339 35.8713 34.3713C36.4339 33.8087 36.75 33.0456 36.75 32.25V25.5H29.4375C29.3878 25.5 29.3401 25.5198 29.3049 25.5549C29.2698 25.5901 29.25 25.6378 29.25 25.6875V25.875Z" fill="#1565D8"/>
</svg>
