<svg width="52" height="51" viewBox="0 0 52 51" fill="none" xmlns="http://www.w3.org/2000/svg">
<ellipse cx="25.6667" cy="25.0556" rx="25.6667" ry="25.0556" fill="#E6FFFF"/>
<path d="M29.7499 25C28.7862 25 27.8543 24.5697 27.1249 23.7888C26.4157 23.027 25.9826 22.0113 25.9062 20.9294C25.8246 19.7753 26.1767 18.7141 26.8971 17.9406C27.6176 17.1672 28.6249 16.75 29.7499 16.75C30.867 16.75 31.8771 17.1747 32.5953 17.9462C33.3204 18.7253 33.6734 19.7847 33.5918 20.9289C33.5135 22.0122 33.0809 23.0275 32.3731 23.7883C31.6456 24.5697 30.7142 25 29.7499 25ZM35.9295 33.25H23.5709C23.3722 33.2511 23.1759 33.2065 22.9971 33.1198C22.8183 33.0331 22.6618 32.9065 22.5396 32.7498C22.41 32.58 22.3205 32.383 22.2778 32.1736C22.2351 31.9643 22.2403 31.748 22.2931 31.5409C22.6878 29.9561 23.6656 28.6417 25.1206 27.7403C26.412 26.9406 28.0559 26.5 29.7499 26.5C31.4773 26.5 33.0781 26.9219 34.377 27.7211C35.8353 28.6178 36.8145 29.9397 37.2073 31.5438C37.2594 31.751 37.264 31.9673 37.2208 32.1765C37.1777 32.3857 37.0878 32.5825 36.9579 32.7522C36.8359 32.9082 36.6797 33.0341 36.5014 33.1204C36.3232 33.2067 36.1275 33.251 35.9295 33.25ZM20.8906 25.1875C19.241 25.1875 17.7907 23.6538 17.6562 21.7689C17.5896 20.8033 17.8906 19.9103 18.4999 19.2555C19.1028 18.6072 19.9531 18.25 20.8906 18.25C21.8281 18.25 22.6718 18.6091 23.2779 19.2611C23.892 19.9211 24.192 20.8122 24.1217 21.7698C23.9871 23.6542 22.5373 25.1875 20.8906 25.1875ZM23.9684 26.6617C23.1439 26.2586 22.0737 26.057 20.891 26.057C19.5101 26.057 18.169 26.417 17.1143 27.0705C15.9185 27.8125 15.1142 28.893 14.7893 30.1975C14.7418 30.3851 14.7373 30.5811 14.7762 30.7707C14.8151 30.9603 14.8963 31.1387 15.0139 31.2925C15.1254 31.4357 15.2683 31.5514 15.4315 31.6307C15.5948 31.71 15.7741 31.7508 15.9556 31.75H21.1587C21.2465 31.75 21.3315 31.7192 21.399 31.6629C21.4664 31.6066 21.5119 31.5284 21.5276 31.442C21.5328 31.4125 21.5393 31.383 21.5468 31.3539C21.9443 29.7573 22.8757 28.4083 24.252 27.4248C24.3026 27.3884 24.3433 27.3398 24.3704 27.2836C24.3975 27.2274 24.4102 27.1653 24.4073 27.103C24.4044 27.0407 24.3859 26.9801 24.3536 26.9267C24.3214 26.8733 24.2763 26.8288 24.2224 26.7972C24.1489 26.7541 24.0645 26.7086 23.9684 26.6617Z" fill="#1565D8"/>
</svg>
